<?xml version="1.0" encoding="UTF-8" standalone="no"?>
<!DOCTYPE svg PUBLIC "-//W3C//DTD SVG 1.0//EN" "http://www.w3.org/TR/2001/REC-SVG-20010904/DTD/svg10.dtd">
<!-- Generated by Microsoft Visio 11.0, SVG Export, v1.0 ClassVBTE.svg Page-1 -->
<svg xmlns="http://www.w3.org/2000/svg" xmlns:xlink="http://www.w3.org/1999/xlink" xmlns:ev="http://www.w3.org/2001/xml-events"
		xmlns:v="http://schemas.microsoft.com/visio/2003/SVGExtensions/" width="8.5in" height="11in" viewBox="0 0 612 792"
		xml:space="preserve" color-interpolation-filters="sRGB" class="st12">
	<v:documentProperties v:langID="1033" v:metric="true" v:viewMarkup="false">
		<v:userDefs>
			<v:ud v:nameU="msvNoAutoConnect" v:val="VT0(1):26"/>
		</v:userDefs>
	</v:documentProperties>

	<style type="text/css">
	<![CDATA[
		.st1 {fill:#ffffff;stroke:#000000;stroke-linecap:round;stroke-linejoin:round;stroke-width:0.24}
		.st2 {fill:#000000;font-family:Arial;font-size:0.666664em}
		.st3 {font-size:1em}
		.st4 {fill:#ffffff}
		.st5 {stroke:#000000;stroke-linecap:round;stroke-linejoin:round;stroke-width:0.24}
		.st6 {fill:#ffffff;stroke:none;stroke-linecap:butt;stroke-width:7.2}
		.st7 {fill:#ffffff;visibility:hidden}
		.st8 {fill:none}
		.st9 {marker-end:url(#mrkr14-129);stroke:#000000;stroke-linecap:round;stroke-linejoin:round;stroke-width:0.24;visibility:hidden}
		.st10 {fill:#000000;fill-opacity:1;stroke:#000000;stroke-opacity:1;stroke-width:0.08695652173913}
		.st11 {fill:#000000}
		.st12 {fill:none;fill-rule:evenodd;font-size:12px;overflow:visible;stroke-linecap:square;stroke-miterlimit:3}
	]]>
	</style>

	<defs id="Markers">
		<g id="lend14">
			<path d="M 3 -1 L 0 0 L 3 1 L 3 -1 " style="stroke-linecap:round;stroke-linejoin:round;fill:none"/>
		</g>
		<marker id="mrkr14-129" class="st10" v:arrowType="14" v:arrowSize="2" v:setback="34.5" refX="-34.5" orient="auto"
				markerUnits="strokeWidth" overflow="visible">
			<use xlink:href="#lend14" transform="scale(-11.5,-11.5) "/>
		</marker>
	</defs>
	<g v:mID="0" v:index="1" v:groupContext="foregroundPage">
		<title>Page-1</title>
		<v:pageProperties v:drawingScale="1" v:pageScale="1" v:drawingUnits="19" v:shadowOffsetX="9" v:shadowOffsetY="-9"/>
		<g id="group1-1" transform="translate(236.25,-441)" v:mID="1" v:groupContext="group">
			<v:userDefs>
				<v:ud v:nameU="F" v:val="VT0(1):26"/>
				<v:ud v:nameU="Format" v:val="VT0(0):26"/>
				<v:ud v:nameU="ActiveObject" v:prompt="0,0626" v:val="VT0(0):26"/>
			</v:userDefs>
			<title>Block</title>
			<g id="shape2-2" v:mID="2" v:groupContext="shape" transform="translate(184.5,0)">
				<title>Sheet.2</title>
				<path d="M0 792 L0 756 L0 792 Z" class="st1"/>
			</g>
			<g id="shape3-4" v:mID="3" v:groupContext="shape">
				<title>Sheet.3</title>
				<path d="M184.5 792 L0 792 L184.5 792 Z" class="st1"/>
			</g>
			<g id="shape4-6" v:mID="4" v:groupContext="shape">
				<title>Sheet.4</title>
				<path d="M184.5 792 L0 792 L184.5 792 Z" class="st1"/>
			</g>
			<g id="shape5-8" v:mID="5" v:groupContext="shape">
				<title>Sheet.5</title>
				<path d="M184.5 792 L0 792 L184.5 792 Z" class="st1"/>
			</g>
			<g id="shape6-10" v:mID="6" v:groupContext="shape">
				<title>Sheet.6</title>
				<desc>&#60;&#60;header file&#62;&#62; Dist</desc>
				<v:userDefs>
					<v:ud v:nameU="TabSize" v:val="VT0(0.125):0"/>
				</v:userDefs>
				<v:textBlock v:margins="rect(4,4,4,4)"/>
				<v:textRect cx="92.25" cy="774" width="184.5" height="36"/>
				<path d="M184.5 792 L184.5 756 L0 756 L0 792 L184.5 792 ZM0 792 L0 756 L0 792 ZM184.5 792 L184.5 756 L184.5 792 Z"
						class="st1"/>
				<text x="64.23" y="771.6" class="st2" v:langID="1030"><v:paragraph v:horizAlign="1"/><v:tabList/>&#60;&#60;header file&#62;&#62;<v:newlineChar/><tspan
							x="85.36" dy="1.2em" class="st3">Dist</tspan></text>			</g>
		</g>
		<g id="shape8-14" v:mID="8" v:groupContext="shape" transform="translate(236.25,-394.597)">
			<title>Compartment.8</title>
			<desc>+ SendBurst( void ) : void + CalculateDistance( void ) : floa...</desc>
			<v:userDefs>
				<v:ud v:nameU="SetHeight" v:prompt="" v:val="VT0(0):26"/>
			</v:userDefs>
			<v:textBlock v:margins="rect(4,4,4,4)" v:verticalAlign="0"/>
			<v:textRect cx="92.25" cy="763.998" width="184.5" height="36.8035"/>
			<path d="M0 745.6 L0 792 L184.5 792 L184.5 745.6 L0 745.6 Z" class="st4"/>
			<path d="M0 745.6 L0 792 L184.5 792 L184.5 745.6" class="st5"/>
			<rect v:rectContext="textBkgnd" x="4.00012" y="749.597" width="175.839" height="28.7996" class="st6"/>
			<text x="4" y="756.8" class="st2" v:langID="1030"><v:paragraph/><v:tabList/>+ SendBurst( void ) : void<v:newlineChar/><tspan
						x="4" dy="1.2em" class="st3">+ </tspan>CalculateDistance( void ) : float<v:newlineChar/><tspan x="4"
						dy="1.2em" class="st3">+ </tspan>ConvertMMtoPercent( float DistanceMM) : uint8</text>		</g>
		<g id="group9-21" transform="translate(54,-441)" v:mID="9" v:groupContext="group">
			<v:userDefs>
				<v:ud v:nameU="F" v:val="VT0(1):26"/>
				<v:ud v:nameU="Format" v:val="VT0(0):26"/>
				<v:ud v:nameU="ActiveObject" v:prompt="0,0626" v:val="VT0(0):26"/>
			</v:userDefs>
			<title>Block.9</title>
			<g id="shape10-22" v:mID="10" v:groupContext="shape" transform="translate(162,0)">
				<title>Sheet.10</title>
				<path d="M0 792 L0 756 L0 792 Z" class="st1"/>
			</g>
			<g id="shape11-24" v:mID="11" v:groupContext="shape">
				<title>Sheet.11</title>
				<path d="M162 792 L0 792 L162 792 Z" class="st1"/>
			</g>
			<g id="shape12-26" v:mID="12" v:groupContext="shape">
				<title>Sheet.12</title>
				<path d="M162 792 L0 792 L162 792 Z" class="st1"/>
			</g>
			<g id="shape13-28" v:mID="13" v:groupContext="shape">
				<title>Sheet.13</title>
				<path d="M162 792 L0 792 L162 792 Z" class="st1"/>
			</g>
			<g id="shape14-30" v:mID="14" v:groupContext="shape">
				<title>Sheet.14</title>
				<desc>&#60;&#60;header file&#62;&#62; Init</desc>
				<v:userDefs>
					<v:ud v:nameU="TabSize" v:val="VT0(0.125):0"/>
				</v:userDefs>
				<v:textBlock v:margins="rect(4,4,4,4)"/>
				<v:textRect cx="81" cy="774" width="162" height="36"/>
				<path d="M162 792 L162 756 L0 756 L0 792 L162 792 ZM0 792 L0 756 L0 792 ZM162 792 L162 756 L162 792 Z" class="st1"/>
				<text x="52.98" y="771.6" class="st2" v:langID="1030"><v:paragraph v:horizAlign="1"/><v:tabList/>&#60;&#60;header file&#62;&#62;<v:newlineChar/><tspan
							x="75.66" dy="1.2em" class="st3">Init</tspan></text>			</g>
		</g>
		<g id="shape16-34" v:mID="16" v:groupContext="shape" transform="translate(54,-404.197)">
			<title>Compartment.16</title>
			<desc>+ Init(uint8 *WriteBuffer, uint8 *ReadBuffer, uint8 BufferSiz...</desc>
			<v:userDefs>
				<v:ud v:nameU="SetHeight" v:prompt="" v:val="VT0(0):26"/>
			</v:userDefs>
			<v:textBlock v:margins="rect(4,4,4,4)" v:verticalAlign="0"/>
			<v:textRect cx="81" cy="768.798" width="162" height="27.2035"/>
			<path d="M0 755.2 L0 792 L162 792 L162 755.2 L0 755.2 Z" class="st4"/>
			<path d="M0 755.2 L0 792 L162 792 L162 755.2" class="st5"/>
			<rect v:rectContext="textBkgnd" x="4.00012" y="759.197" width="152.74" height="19.1997" class="st6"/>
			<text x="4" y="766.4" class="st2" v:langID="1030"><v:paragraph/><v:tabList/>+ Init(uint8 *WriteBuffer, uint8 *ReadBuffer, <tspan
						x="4" dy="1.2em" class="st3">uint</tspan>8 BufferSize) : uint8</text>		</g>
		<g id="group17-40" transform="translate(153,-621)" v:mID="17" v:groupContext="group">
			<v:userDefs>
				<v:ud v:nameU="F" v:val="VT0(1):26"/>
				<v:ud v:nameU="Format" v:val="VT0(0):26"/>
				<v:ud v:nameU="ActiveObject" v:prompt="0,0626" v:val="VT0(0):26"/>
			</v:userDefs>
			<title>Block.17</title>
			<g id="shape18-41" v:mID="18" v:groupContext="shape" transform="translate(144,0)">
				<title>Sheet.18</title>
				<path d="M0 792 L0 756 L0 792 Z" class="st1"/>
			</g>
			<g id="shape19-43" v:mID="19" v:groupContext="shape">
				<title>Sheet.19</title>
				<path d="M144 792 L0 792 L144 792 Z" class="st1"/>
			</g>
			<g id="shape20-45" v:mID="20" v:groupContext="shape">
				<title>Sheet.20</title>
				<path d="M144 792 L0 792 L144 792 Z" class="st1"/>
			</g>
			<g id="shape21-47" v:mID="21" v:groupContext="shape">
				<title>Sheet.21</title>
				<path d="M144 792 L0 792 L144 792 Z" class="st1"/>
			</g>
			<g id="shape22-49" v:mID="22" v:groupContext="shape">
				<title>Sheet.22</title>
				<desc>&#60;&#60;header file&#62;&#62; I2Chandle</desc>
				<v:userDefs>
					<v:ud v:nameU="TabSize" v:val="VT0(0.125):0"/>
				</v:userDefs>
				<v:textBlock v:margins="rect(4,4,4,4)"/>
				<v:textRect cx="72" cy="774" width="144" height="36"/>
				<path d="M144 792 L144 756 L0 756 L0 792 L144 792 ZM0 792 L0 756 L0 792 ZM144 792 L144 756 L144 792 Z" class="st1"/>
				<text x="43.98" y="771.6" class="st2" v:langID="1030"><v:paragraph v:horizAlign="1"/><v:tabList/>&#60;&#60;header file&#62;&#62;<v:newlineChar/><tspan
							x="53.76" dy="1.2em" class="st3">I</tspan>2Chandle</text>			</g>
		</g>
		<g id="shape24-53" v:mID="24" v:groupContext="shape" transform="translate(153,-593.796)">
			<title>Compartment.24</title>
			<desc>+ I2C_handle(uint8 *WriteBuffer, uint8 *ReadBuffer, uint8 Buf...</desc>
			<v:userDefs>
				<v:ud v:nameU="SetHeight" v:prompt="" v:val="VT0(0):26"/>
			</v:userDefs>
			<v:textBlock v:margins="rect(4,4,4,4)" v:verticalAlign="0"/>
			<v:textRect cx="72" cy="778.398" width="144" height="27.2035"/>
			<path d="M0 764.8 L0 792 L144 792 L144 764.8 L0 764.8 Z" class="st4"/>
			<path d="M0 764.8 L0 792 L144 792 L144 764.8" class="st5"/>
			<rect v:rectContext="textBkgnd" x="4.00012" y="768.797" width="134.963" height="19.1997" class="st6"/>
			<text x="4" y="776" class="st2" v:langID="1030"><v:paragraph/><v:tabList/>+ I2C_handle(uint8 *WriteBuffer, uint8 <tspan
						x="4" dy="1.2em" class="st3">*</tspan>ReadBuffer, uint8 BufferSize) : uint8</text>		</g>
		<g id="group25-59" transform="translate(18,-522)" v:mID="25" v:groupContext="group">
			<v:userDefs>
				<v:ud v:nameU="F" v:val="VT0(1):26"/>
				<v:ud v:nameU="Format" v:val="VT0(0):26"/>
				<v:ud v:nameU="ActiveObject" v:prompt="0,0626" v:val="VT0(0):26"/>
			</v:userDefs>
			<title>Block.25</title>
			<g id="shape26-60" v:mID="26" v:groupContext="shape" transform="translate(117,0)">
				<title>Sheet.26</title>
				<path d="M0 792 L0 756 L0 792 Z" class="st1"/>
			</g>
			<g id="shape27-62" v:mID="27" v:groupContext="shape">
				<title>Sheet.27</title>
				<path d="M117 792 L0 792 L117 792 Z" class="st1"/>
			</g>
			<g id="shape28-64" v:mID="28" v:groupContext="shape">
				<title>Sheet.28</title>
				<path d="M117 792 L0 792 L117 792 Z" class="st1"/>
			</g>
			<g id="shape29-66" v:mID="29" v:groupContext="shape">
				<title>Sheet.29</title>
				<path d="M117 792 L0 792 L117 792 Z" class="st1"/>
			</g>
			<g id="shape30-68" v:mID="30" v:groupContext="shape">
				<title>Sheet.30</title>
				<desc>&#60;&#60;header file&#62;&#62; vavle</desc>
				<v:userDefs>
					<v:ud v:nameU="TabSize" v:val="VT0(0.125):0"/>
				</v:userDefs>
				<v:textBlock v:margins="rect(4,4,4,4)"/>
				<v:textRect cx="58.5" cy="774" width="117" height="36"/>
				<path d="M117 792 L117 756 L0 756 L0 792 L117 792 ZM0 792 L0 756 L0 792 ZM117 792 L117 756 L117 792 Z" class="st1"/>
				<text x="30.48" y="771.6" class="st2" v:langID="1030"><v:paragraph v:horizAlign="1"/><v:tabList/>&#60;&#60;header file&#62;&#62;<v:newlineChar/><tspan
							x="49.16" dy="1.2em" class="st3">vavle</tspan></text>			</g>
		</g>
		<g id="shape32-72" v:mID="32" v:groupContext="shape" transform="translate(18,-494.796)">
			<title>Compartment.32</title>
			<desc>+ changeState( uint8 state ) : void</desc>
			<v:userDefs>
				<v:ud v:nameU="SetHeight" v:prompt="" v:val="VT0(0):26"/>
			</v:userDefs>
			<v:textBlock v:margins="rect(4,4,4,4)" v:verticalAlign="0"/>
			<v:textRect cx="58.5" cy="778.398" width="117" height="27.2035"/>
			<path d="M0 764.8 L0 792 L117 792 L117 764.8 L0 764.8 Z" class="st4"/>
			<path d="M0 764.8 L0 792 L117 792 L117 764.8" class="st5"/>
			<rect v:rectContext="textBkgnd" x="4.00012" y="768.797" width="102.952" height="19.1997" class="st6"/>
			<text x="4" y="776" class="st2" v:langID="1030"><v:paragraph/><v:tabList/>+ changeState( uint8 state ) : <tspan x="4"
						dy="1.2em" class="st3">void</tspan></text>		</g>
		<g id="group33-78" transform="translate(9,-387)" v:mID="33" v:groupContext="group">
			<v:userDefs>
				<v:ud v:nameU="Width" v:prompt="" v:val="VT0(0):26"/>
			</v:userDefs>
			<title>Block Def. Diagram</title>
			<g id="shape34-79" v:mID="34" v:groupContext="shape">
				<title>Sheet.34</title>
				<rect x="0" y="513" width="522" height="279" class="st7"/>
				<rect x="0" y="513" width="522" height="279" class="st5"/>
			</g>
			<g id="shape35-82" v:mID="35" v:groupContext="shape" transform="translate(0,-261)">
				<title>Sheet.35</title>
				<desc>Class VBTE</desc>
				<v:userDefs>
					<v:ud v:nameU="Row_1" v:val="VT0(0):26"/>
					<v:ud v:nameU="Row_2" v:val="VT0(0):26"/>
				</v:userDefs>
				<v:textBlock v:margins="rect(4,4,4,4)"/>
				<v:textRect cx="26.6735" cy="783" width="53.35" height="18"/>
				<path d="M0 792 L44.35 792 L53.35 783 L53.35 774 L0 774 L0 792 Z" class="st1"/>
				<text x="4" y="785.4" class="st2" v:langID="1030"><v:paragraph/><v:tabList/>Class VBTE</text>			</g>
		</g>
		<g id="group36-85" transform="translate(315,-603)" v:mID="36" v:groupContext="group">
			<v:userDefs>
				<v:ud v:nameU="F" v:val="VT0(1):26"/>
				<v:ud v:nameU="Format" v:val="VT0(0):26"/>
				<v:ud v:nameU="ActiveObject" v:prompt="0,0626" v:val="VT0(0):26"/>
			</v:userDefs>
			<title>Block.36</title>
			<g id="shape37-86" v:mID="37" v:groupContext="shape" transform="translate(207,0)">
				<title>Sheet.37</title>
				<path d="M0 792 L0 756 L0 792 Z" class="st1"/>
			</g>
			<g id="shape38-88" v:mID="38" v:groupContext="shape">
				<title>Sheet.38</title>
				<path d="M207 792 L0 792 L207 792 Z" class="st1"/>
			</g>
			<g id="shape39-90" v:mID="39" v:groupContext="shape">
				<title>Sheet.39</title>
				<path d="M207 792 L0 792 L207 792 Z" class="st1"/>
			</g>
			<g id="shape40-92" v:mID="40" v:groupContext="shape">
				<title>Sheet.40</title>
				<path d="M207 792 L0 792 L207 792 Z" class="st1"/>
			</g>
			<g id="shape41-94" v:mID="41" v:groupContext="shape">
				<title>Sheet.41</title>
				<desc>PSoC-API::ADC</desc>
				<v:userDefs>
					<v:ud v:nameU="TabSize" v:val="VT0(0.125):0"/>
				</v:userDefs>
				<v:textBlock v:margins="rect(4,4,4,4)"/>
				<v:textRect cx="103.5" cy="774" width="207" height="36"/>
				<path d="M207 792 L207 756 L0 756 L0 792 L207 792 ZM0 792 L0 756 L0 792 ZM207 792 L207 756 L207 792 Z" class="st1"/>
				<text x="74.6" y="776.4" class="st2" v:langID="1030"><v:paragraph v:horizAlign="1"/><v:tabList/>PSoC-API::ADC</text>			</g>
		</g>
		<g id="shape42-97" v:mID="42" v:groupContext="shape" transform="translate(315,-546.997)">
			<title>Compartment.42</title>
			<desc>- V_SUM : float - V_ADC : float - V_ADC : float - n : int - i...</desc>
			<v:userDefs>
				<v:ud v:nameU="SetHeight" v:prompt="" v:val="VT0(0):26"/>
			</v:userDefs>
			<v:textBlock v:margins="rect(4,4,4,4)" v:verticalAlign="0"/>
			<v:textRect cx="103.5" cy="763.998" width="207" height="56.0034"/>
			<path d="M0 736 L0 792 L207 792 L207 736 L0 736 Z" class="st4"/>
			<path d="M0 736 L0 792 L207 792 L207 736" class="st5"/>
			<rect v:rectContext="textBkgnd" x="4.00012" y="739.997" width="54.2373" height="47.9995" class="st6"/>
			<text x="4" y="747.2" class="st2" v:langID="1030"><v:paragraph/><v:tabList/>- V_SUM : float<v:newlineChar/><tspan x="4"
						dy="1.2em" class="st3">-</tspan> V_ADC : float<v:newlineChar/><tspan x="4" dy="1.2em" class="st3">-</tspan> V_ADC : float<v:newlineChar/><tspan
						x="4" dy="1.2em" class="st3">-</tspan> n : int<v:newlineChar/><tspan x="4" dy="1.2em" class="st3">-</tspan> i : i</text>		</g>
		<g id="shape43-106" v:mID="43" v:groupContext="shape" transform="translate(315,-500.593)">
			<title>Compartment.43</title>
			<desc>+ ADC_DelSig_1_GetResult32( void ) : int32 + ADC_DelSig_1_Cou...</desc>
			<v:userDefs>
				<v:ud v:nameU="SetHeight" v:prompt="" v:val="VT0(0):26"/>
			</v:userDefs>
			<v:textBlock v:margins="rect(4,4,4,4)" v:verticalAlign="0"/>
			<v:textRect cx="103.5" cy="763.998" width="207" height="36.8035"/>
			<path d="M0 745.6 L0 792 L207 792 L207 745.6 L0 745.6 Z" class="st4"/>
			<path d="M0 745.6 L0 792 L207 792 L207 745.6" class="st5"/>
			<rect v:rectContext="textBkgnd" x="4.00012" y="749.597" width="191.424" height="28.7996" class="st6"/>
			<text x="4" y="756.8" class="st2" v:langID="1030"><v:paragraph/><v:tabList/>+ ADC_DelSig_1_GetResult32( void ) : int32<v:newlineChar/><tspan
						x="4" dy="1.2em" class="st3">+ </tspan>ADC_DelSig_1_CountsToVolts( int32 Result ) : float<v:newlineChar/></text>		</g>
		<g id="group44-112" transform="translate(166.5,-531)" v:mID="44" v:groupContext="group">
			<v:userDefs>
				<v:ud v:nameU="F" v:val="VT0(1):26"/>
				<v:ud v:nameU="Format" v:val="VT0(0):26"/>
				<v:ud v:nameU="ActiveObject" v:prompt="0,0626" v:val="VT0(0):26"/>
			</v:userDefs>
			<title>Block.44</title>
			<g id="shape45-113" v:mID="45" v:groupContext="shape" transform="translate(117,0)">
				<title>Sheet.45</title>
				<path d="M0 792 L0 756 L0 792 Z" class="st1"/>
			</g>
			<g id="shape46-115" v:mID="46" v:groupContext="shape">
				<title>Sheet.46</title>
				<path d="M117 792 L0 792 L117 792 Z" class="st1"/>
			</g>
			<g id="shape47-117" v:mID="47" v:groupContext="shape">
				<title>Sheet.47</title>
				<path d="M117 792 L0 792 L117 792 Z" class="st1"/>
			</g>
			<g id="shape48-119" v:mID="48" v:groupContext="shape">
				<title>Sheet.48</title>
				<path d="M117 792 L0 792 L117 792 Z" class="st1"/>
			</g>
			<g id="shape49-121" v:mID="49" v:groupContext="shape">
				<title>Sheet.49</title>
				<desc>Main</desc>
				<v:userDefs>
					<v:ud v:nameU="TabSize" v:val="VT0(0.125):0"/>
				</v:userDefs>
				<v:textBlock v:margins="rect(4,4,4,4)"/>
				<v:textRect cx="58.5" cy="774" width="117" height="36"/>
				<path d="M117 792 L117 756 L0 756 L0 792 L117 792 ZM0 792 L0 756 L0 792 ZM117 792 L117 756 L117 792 Z" class="st1"/>
				<text x="49.83" y="776.4" class="st2" v:langID="1030"><v:paragraph v:horizAlign="1"/><v:tabList/>Main</text>			</g>
		</g>
		<g id="group52-124" transform="translate(234,-593.796)" v:mID="52" v:groupContext="group">
			<v:userDefs>
				<v:ud v:nameU="BeginAngle" v:prompt="" v:val="VT0(-1.5707963267949):32"/>
				<v:ud v:nameU="EndAngle" v:prompt="" v:val="VT0(-1.5707963267949):32"/>
				<v:ud v:nameU="RealBeginX" v:val="VT0(-0.125):1"/>
				<v:ud v:nameU="RealBeginY" v:val="VT0(1.7763568394003E-015):1"/>
				<v:ud v:nameU="EndX" v:val="VT0(0.125):1"/>
				<v:ud v:nameU="EndY" v:val="VT0(0.37217323947483):1"/>
				<v:ud v:nameU="BeginArrowSize" v:val="VT0(0.17333333333333):3"/>
				<v:ud v:nameU="EndSize" v:val="VT0(0.17333333333333):3"/>
				<v:ud v:nameU="FillColor" v:val="VT0(1):26"/>
				<v:ud v:nameU="Navigability" v:val="VT0(-0.125):1"/>
				<v:ud v:nameU="NonNavigability" v:val="VT0(-0.17333333333333):1"/>
				<v:ud v:nameU="BeginArrow" v:val="VT0(0):26"/>
				<v:ud v:nameU="BeginArro22Possible" v:val="VT0(0):5"/>
				<v:ud v:nameU="SetBeginArrow" v:val="VT0(0):26"/>
				<v:ud v:nameU="SetBeginArrow2" v:val="VT0(0):26"/>
				<v:ud v:nameU="SetBeginArrow3" v:val="VT0(0):26"/>
				<v:ud v:nameU="SetEndArrow" v:val="VT0(0):26"/>
				<v:ud v:nameU="MiddleAngle" v:val="VT0(3.1415926535898):32"/>
				<v:ud v:nameU="MiddleSize" v:val="VT0(0.065):3"/>
			</v:userDefs>
			<title>Association</title>
			<g id="shape53-125" v:mID="53" v:groupContext="shape" transform="translate(2.60112,16.2075)">
				<title>Sheet.53</title>
				<rect x="0" y="789.746" width="2.2536" height="2.2536" class="st8"/>
				<rect x="0" y="789.746" width="2.2536" height="2.2536" class="st9"/>
			</g>
			<g id="shape54-130" v:mID="54" v:groupContext="shape" transform="translate(2.60112,12.8426)">
				<title>Sheet.54</title>
				<rect x="0" y="789.746" width="2.2536" height="2.2536" class="st8"/>
				<rect x="0" y="789.746" width="2.2536" height="2.2536" class="st9"/>
			</g>
			<g id="shape55-134" v:mID="55" v:groupContext="shape" transform="translate(-22.8547,12.8426)">
				<title>Sheet.55</title>
				<rect x="0" y="789.746" width="2.2536" height="2.2536" class="st8"/>
				<rect x="0" y="789.746" width="2.2536" height="2.2536" class="st9"/>
			</g>
			<g id="shape56-138" v:mID="56" v:groupContext="shape" transform="translate(-22.8547,16.2075)">
				<title>Sheet.56</title>
				<rect x="0" y="789.746" width="2.2536" height="2.2536" class="st8"/>
				<rect x="0" y="789.746" width="2.2536" height="2.2536" class="st9"/>
			</g>
			<g id="shape52-142" v:mID="52" v:groupContext="groupContent">
				<path d="M-9 792 L-5.83 798.22 L-9 804.48 L-12.17 798.22 L-9 792 Z" class="st11"/>
				<path d="M-9 792 L-9 818.8" class="st5"/>
				<path d="M-9 792 L-5.83 798.22 L-9 804.48 L-12.17 798.22 L-9 792" class="st5"/>
			</g>
		</g>
		<g id="group57-146" transform="translate(135,-531)" v:mID="57" v:groupContext="group">
			<v:userDefs>
				<v:ud v:nameU="BeginAngle" v:prompt="" v:val="VT0(0):32"/>
				<v:ud v:nameU="EndAngle" v:prompt="" v:val="VT0(0):32"/>
				<v:ud v:nameU="RealBeginX" v:val="VT0(0):1"/>
				<v:ud v:nameU="RealBeginY" v:val="VT0(0.125):1"/>
				<v:ud v:nameU="EndX" v:val="VT0(-0.4375):1"/>
				<v:ud v:nameU="EndY" v:val="VT0(-0.125):1"/>
				<v:ud v:nameU="BeginArrowSize" v:val="VT0(0.17333333333333):3"/>
				<v:ud v:nameU="EndSize" v:val="VT0(0.17333333333333):3"/>
				<v:ud v:nameU="FillColor" v:val="VT0(1):26"/>
				<v:ud v:nameU="Navigability" v:val="VT0(0.17333333333333):1"/>
				<v:ud v:nameU="NonNavigability" v:val="VT0(0.125):1"/>
				<v:ud v:nameU="BeginArrow" v:val="VT0(0):26"/>
				<v:ud v:nameU="BeginArro22Possible" v:val="VT0(0):5"/>
				<v:ud v:nameU="SetBeginArrow" v:val="VT0(0):26"/>
				<v:ud v:nameU="SetBeginArrow2" v:val="VT0(0):26"/>
				<v:ud v:nameU="SetBeginArrow3" v:val="VT0(0):26"/>
				<v:ud v:nameU="SetEndArrow" v:val="VT0(0):26"/>
				<v:ud v:nameU="MiddleAngle" v:val="VT0(1.5707963267949):32"/>
				<v:ud v:nameU="MiddleSize" v:val="VT0(0.065):3"/>
			</v:userDefs>
			<title>Association.57</title>
			<g id="shape58-147" v:mID="58" v:groupContext="shape" transform="translate(16.7003,-14.1732)">
				<title>Sheet.58</title>
				<rect x="0" y="789.746" width="2.2536" height="2.2536" class="st8"/>
				<rect x="0" y="789.746" width="2.2536" height="2.2536" class="st9"/>
			</g>
			<g id="shape59-151" v:mID="59" v:groupContext="shape" transform="translate(12.5461,-14.1732)">
				<title>Sheet.59</title>
				<rect x="0" y="789.746" width="2.2536" height="2.2536" class="st8"/>
				<rect x="0" y="789.746" width="2.2536" height="2.2536" class="st9"/>
			</g>
			<g id="shape60-155" v:mID="60" v:groupContext="shape" transform="translate(12.5461,-1.5732)">
				<title>Sheet.60</title>
				<rect x="0" y="789.746" width="2.2536" height="2.2536" class="st8"/>
				<rect x="0" y="789.746" width="2.2536" height="2.2536" class="st9"/>
			</g>
			<g id="shape61-159" v:mID="61" v:groupContext="shape" transform="translate(16.7003,-1.5732)">
				<title>Sheet.61</title>
				<rect x="0" y="789.746" width="2.2536" height="2.2536" class="st8"/>
				<rect x="0" y="789.746" width="2.2536" height="2.2536" class="st9"/>
			</g>
			<g id="shape57-163" v:mID="57" v:groupContext="groupContent">
				<path d="M0 783 L6.22 779.83 L12.48 783 L6.22 786.17 L0 783 Z" class="st11"/>
				<path d="M0 783 L31.5 783" class="st5"/>
				<path d="M0 783 L6.22 779.83 L12.48 783 L6.22 786.17 L0 783" class="st5"/>
			</g>
		</g>
		<g id="group62-167" transform="translate(175.5,-477)" v:mID="62" v:groupContext="group">
			<v:userDefs>
				<v:ud v:nameU="BeginAngle" v:prompt="" v:val="VT0(1.2120256565243):32"/>
				<v:ud v:nameU="EndAngle" v:prompt="" v:val="VT0(1.2120256565243):32"/>
				<v:ud v:nameU="RealBeginX" v:val="VT0(0):1"/>
				<v:ud v:nameU="RealBeginY" v:val="VT0(0):1"/>
				<v:ud v:nameU="EndX" v:val="VT0(-0.28125):1"/>
				<v:ud v:nameU="EndY" v:val="VT0(-0.75):1"/>
				<v:ud v:nameU="BeginArrowSize" v:val="VT0(0.17333333333333):3"/>
				<v:ud v:nameU="EndSize" v:val="VT0(0.17333333333333):3"/>
				<v:ud v:nameU="FillColor" v:val="VT0(1):26"/>
				<v:ud v:nameU="Navigability" v:val="VT0(0.060861396541988):1"/>
				<v:ud v:nameU="NonNavigability" v:val="VT0(0.1622970574453):1"/>
				<v:ud v:nameU="BeginArrow" v:val="VT0(0):26"/>
				<v:ud v:nameU="BeginArro22Possible" v:val="VT0(0):5"/>
				<v:ud v:nameU="SetBeginArrow" v:val="VT0(0):26"/>
				<v:ud v:nameU="SetBeginArrow2" v:val="VT0(0):26"/>
				<v:ud v:nameU="SetBeginArrow3" v:val="VT0(0):26"/>
				<v:ud v:nameU="SetEndArrow" v:val="VT0(0):26"/>
				<v:ud v:nameU="MiddleAngle" v:val="VT0(0.35877067027044):32"/>
				<v:ud v:nameU="MiddleSize" v:val="VT0(0.065):3"/>
			</v:userDefs>
			<title>Association.62</title>
			<g id="shape63-168" v:mID="63" v:groupContext="shape" transform="translate(2.1291,-43.2481)">
				<title>Sheet.63</title>
				<rect x="0" y="789.746" width="2.2536" height="2.2536" class="st8"/>
				<rect x="0" y="789.746" width="2.2536" height="2.2536" class="st9"/>
			</g>
			<g id="shape64-172" v:mID="64" v:groupContext="shape" transform="translate(-7.96775,-12.9224)">
				<title>Sheet.64</title>
				<rect x="0" y="789.746" width="2.2536" height="2.2536" class="st8"/>
				<rect x="0" y="789.746" width="2.2536" height="2.2536" class="st9"/>
			</g>
			<g id="shape65-176" v:mID="65" v:groupContext="shape" transform="translate(15.8673,-8.49827)">
				<title>Sheet.65</title>
				<rect x="0" y="789.746" width="2.2536" height="2.2536" class="st8"/>
				<rect x="0" y="789.746" width="2.2536" height="2.2536" class="st9"/>
			</g>
			<g id="shape66-180" v:mID="66" v:groupContext="shape" transform="translate(25.9642,-38.824)">
				<title>Sheet.66</title>
				<rect x="0" y="789.746" width="2.2536" height="2.2536" class="st8"/>
				<rect x="0" y="789.746" width="2.2536" height="2.2536" class="st9"/>
			</g>
			<g id="shape62-184" v:mID="62" v:groupContext="groupContent">
				<path d="M0 792 L-0.78 785.07 L4.38 780.31 L5.15 787.29 L0 792 Z" class="st11"/>
				<path d="M0 792 L20.25 738" class="st5"/>
				<path d="M0 792 L-0.78 785.07 L4.38 780.31 L5.15 787.29 L0 792" class="st5"/>
			</g>
		</g>
		<g id="group67-188" transform="translate(282.375,-477)" v:mID="67" v:groupContext="group">
			<v:userDefs>
				<v:ud v:nameU="BeginAngle" v:prompt="" v:val="VT0(2.0509713563984):32"/>
				<v:ud v:nameU="EndAngle" v:prompt="" v:val="VT0(2.0509713563984):32"/>
				<v:ud v:nameU="RealBeginX" v:val="VT0(0):1"/>
				<v:ud v:nameU="RealBeginY" v:val="VT0(0):1"/>
				<v:ud v:nameU="EndX" v:val="VT0(0.390625):1"/>
				<v:ud v:nameU="EndY" v:val="VT0(-0.75):1"/>
				<v:ud v:nameU="BeginArrowSize" v:val="VT0(0.17333333333333):3"/>
				<v:ud v:nameU="EndSize" v:val="VT0(0.17333333333333):3"/>
				<v:ud v:nameU="FillColor" v:val="VT0(1):26"/>
				<v:ud v:nameU="Navigability" v:val="VT0(-0.080068632598408):1"/>
				<v:ud v:nameU="NonNavigability" v:val="VT0(0.15373177458894):1"/>
				<v:ud v:nameU="BeginArrow" v:val="VT0(0):26"/>
				<v:ud v:nameU="BeginArro22Possible" v:val="VT0(0):5"/>
				<v:ud v:nameU="SetBeginArrow" v:val="VT0(0):26"/>
				<v:ud v:nameU="SetBeginArrow2" v:val="VT0(0):26"/>
				<v:ud v:nameU="SetBeginArrow3" v:val="VT0(0):26"/>
				<v:ud v:nameU="SetEndArrow" v:val="VT0(0):26"/>
				<v:ud v:nameU="MiddleAngle" v:val="VT0(-0.48017502960343):32"/>
				<v:ud v:nameU="MiddleSize" v:val="VT0(0.065):3"/>
			</v:userDefs>
			<title>Association.67</title>
			<g id="shape68-189" v:mID="68" v:groupContext="shape" transform="translate(-33.8172,-38.6651)">
				<title>Sheet.68</title>
				<rect x="0" y="789.746" width="2.2536" height="2.2536" class="st8"/>
				<rect x="0" y="789.746" width="2.2536" height="2.2536" class="st9"/>
			</g>
			<g id="shape69-193" v:mID="69" v:groupContext="shape" transform="translate(-19.1386,-7.26095)">
				<title>Sheet.69</title>
				<rect x="0" y="789.746" width="2.2536" height="2.2536" class="st8"/>
				<rect x="0" y="789.746" width="2.2536" height="2.2536" class="st9"/>
			</g>
			<g id="shape70-197" v:mID="70" v:groupContext="shape" transform="translate(3.43856,-13.0813)">
				<title>Sheet.70</title>
				<rect x="0" y="789.746" width="2.2536" height="2.2536" class="st8"/>
				<rect x="0" y="789.746" width="2.2536" height="2.2536" class="st9"/>
			</g>
			<g id="shape71-201" v:mID="71" v:groupContext="shape" transform="translate(-11.24,-44.4855)">
				<title>Sheet.71</title>
				<rect x="0" y="789.746" width="2.2536" height="2.2536" class="st8"/>
				<rect x="0" y="789.746" width="2.2536" height="2.2536" class="st9"/>
			</g>
			<g id="shape67-205" v:mID="67" v:groupContext="groupContent">
				<path d="M0 792 L-5.68 787.95 L-5.76 780.93 L-0.06 785.02 L0 792 Z" class="st11"/>
				<path d="M0 792 L-28.13 738" class="st5"/>
				<path d="M0 792 L-5.68 787.95 L-5.76 780.93 L-0.06 785.02 L0 792" class="st5"/>
			</g>
		</g>
		<g id="group72-209" transform="translate(315,-549)" v:mID="72" v:groupContext="group">
			<v:userDefs>
				<v:ud v:nameU="BeginAngle" v:prompt="" v:val="VT0(3.1415926535898):32"/>
				<v:ud v:nameU="EndAngle" v:prompt="" v:val="VT0(3.1415926535898):32"/>
				<v:ud v:nameU="RealBeginX" v:val="VT0(0):1"/>
				<v:ud v:nameU="RealBeginY" v:val="VT0(0.125):1"/>
				<v:ud v:nameU="EndX" v:val="VT0(0.4375):1"/>
				<v:ud v:nameU="EndY" v:val="VT0(-0.125):1"/>
				<v:ud v:nameU="BeginArrowSize" v:val="VT0(0.17333333333333):3"/>
				<v:ud v:nameU="EndSize" v:val="VT0(0.17333333333333):3"/>
				<v:ud v:nameU="FillColor" v:val="VT0(1):26"/>
				<v:ud v:nameU="Navigability" v:val="VT0(-0.17333333333333):1"/>
				<v:ud v:nameU="NonNavigability" v:val="VT0(0.125):1"/>
				<v:ud v:nameU="BeginArrow" v:val="VT0(0):26"/>
				<v:ud v:nameU="BeginArro22Possible" v:val="VT0(0):5"/>
				<v:ud v:nameU="SetBeginArrow" v:val="VT0(0):26"/>
				<v:ud v:nameU="SetBeginArrow2" v:val="VT0(0):26"/>
				<v:ud v:nameU="SetBeginArrow3" v:val="VT0(0):26"/>
				<v:ud v:nameU="SetEndArrow" v:val="VT0(0):26"/>
				<v:ud v:nameU="MiddleAngle" v:val="VT0(-1.5707963267969):32"/>
				<v:ud v:nameU="MiddleSize" v:val="VT0(0.065):3"/>
			</v:userDefs>
			<title>Association.72</title>
			<g id="shape73-210" v:mID="73" v:groupContext="shape" transform="translate(-18.9539,-1.5732)">
				<title>Sheet.73</title>
				<rect x="0" y="789.746" width="2.2536" height="2.2536" class="st8"/>
				<rect x="0" y="789.746" width="2.2536" height="2.2536" class="st9"/>
			</g>
			<g id="shape74-214" v:mID="74" v:groupContext="shape" transform="translate(-14.7997,-1.5732)">
				<title>Sheet.74</title>
				<rect x="0" y="789.746" width="2.2536" height="2.2536" class="st8"/>
				<rect x="0" y="789.746" width="2.2536" height="2.2536" class="st9"/>
			</g>
			<g id="shape75-218" v:mID="75" v:groupContext="shape" transform="translate(-14.7997,-14.1732)">
				<title>Sheet.75</title>
				<rect x="0" y="789.746" width="2.2536" height="2.2536" class="st8"/>
				<rect x="0" y="789.746" width="2.2536" height="2.2536" class="st9"/>
			</g>
			<g id="shape76-222" v:mID="76" v:groupContext="shape" transform="translate(-18.9539,-14.1732)">
				<title>Sheet.76</title>
				<rect x="0" y="789.746" width="2.2536" height="2.2536" class="st8"/>
				<rect x="0" y="789.746" width="2.2536" height="2.2536" class="st9"/>
			</g>
			<g id="shape72-226" v:mID="72" v:groupContext="groupContent">
				<path d="M0 783 L-6.22 786.17 L-12.48 783 L-6.22 779.83 L0 783 Z" class="st11"/>
				<path d="M0 783 L-31.5 783" class="st5"/>
				<path d="M0 783 L-6.22 786.17 L-12.48 783 L-6.22 779.83 L0 783" class="st5"/>
			</g>
		</g>
	</g>
</svg>
